<svg width="145" height="37" viewBox="0 0 145 37" fill="none" xmlns="http://www.w3.org/2000/svg">
<path d="M49.4 12C48.7667 10.8333 47.85 9.95 46.65 9.35C45.4833 8.71666 44.1 8.4 42.5 8.4C39.7333 8.4 37.5167 9.31666 35.85 11.15C34.1833 12.95 33.35 15.3667 33.35 18.4C33.35 21.6333 34.2167 24.1667 35.95 26C37.7167 27.8 40.1333 28.7 43.2 28.7C45.3 28.7 47.0667 28.1667 48.5 27.1C49.9667 26.0333 51.0333 24.5 51.7 22.5H40.85V16.2H59.45V24.15C58.8167 26.2833 57.7333 28.2667 56.2 30.1C54.7 31.9333 52.7833 33.4167 50.45 34.55C48.1167 35.6833 45.4833 36.25 42.55 36.25C39.0833 36.25 35.9833 35.5 33.25 34C30.55 32.4667 28.4333 30.35 26.9 27.65C25.4 24.95 24.65 21.8667 24.65 18.4C24.65 14.9333 25.4 11.85 26.9 9.15C28.4333 6.41667 30.55 4.3 33.25 2.8C35.95 1.26666 39.0333 0.499998 42.5 0.499998C46.7 0.499998 50.2333 1.51666 53.1 3.55C56 5.58333 57.9167 8.4 58.85 12H49.4ZM62.4859 22C62.4859 19.1333 63.0193 16.6167 64.0859 14.45C65.1859 12.2833 66.6693 10.6167 68.5359 9.45C70.4026 8.28333 72.4859 7.7 74.7859 7.7C76.7526 7.7 78.4693 8.1 79.9359 8.9C81.4359 9.7 82.5859 10.75 83.3859 12.05V8.1H91.9359V36H83.3859V32.05C82.5526 33.35 81.3859 34.4 79.8859 35.2C78.4193 36 76.7026 36.4 74.7359 36.4C72.4693 36.4 70.4026 35.8167 68.5359 34.65C66.6693 33.45 65.1859 31.7667 64.0859 29.6C63.0193 27.4 62.4859 24.8667 62.4859 22ZM83.3859 22.05C83.3859 19.9167 82.7859 18.2333 81.5859 17C80.4193 15.7667 78.9859 15.15 77.2859 15.15C75.5859 15.15 74.1359 15.7667 72.9359 17C71.7693 18.2 71.1859 19.8667 71.1859 22C71.1859 24.1333 71.7693 25.8333 72.9359 27.1C74.1359 28.3333 75.5859 28.95 77.2859 28.95C78.9859 28.95 80.4193 28.3333 81.5859 27.1C82.7859 25.8667 83.3859 24.1833 83.3859 22.05ZM113.671 28.75V36H109.321C106.221 36 103.805 35.25 102.071 33.75C100.338 32.2167 99.4715 29.7333 99.4715 26.3V15.2H96.0715V8.1H99.4715V1.3H108.021V8.1H113.621V15.2H108.021V26.4C108.021 27.2333 108.221 27.8333 108.621 28.2C109.021 28.5667 109.688 28.75 110.621 28.75H113.671ZM144.734 21.6C144.734 22.4 144.684 23.2333 144.584 24.1H125.234C125.367 25.8333 125.917 27.1667 126.884 28.1C127.884 29 129.101 29.45 130.534 29.45C132.667 29.45 134.151 28.55 134.984 26.75H144.084C143.617 28.5833 142.767 30.2333 141.534 31.7C140.334 33.1667 138.817 34.3167 136.984 35.15C135.151 35.9833 133.101 36.4 130.834 36.4C128.101 36.4 125.667 35.8167 123.534 34.65C121.401 33.4833 119.734 31.8167 118.534 29.65C117.334 27.4833 116.734 24.95 116.734 22.05C116.734 19.15 117.317 16.6167 118.484 14.45C119.684 12.2833 121.351 10.6167 123.484 9.45C125.617 8.28333 128.067 7.7 130.834 7.7C133.534 7.7 135.934 8.26667 138.034 9.4C140.134 10.5333 141.767 12.15 142.934 14.25C144.134 16.35 144.734 18.8 144.734 21.6ZM135.984 19.35C135.984 17.8833 135.484 16.7167 134.484 15.85C133.484 14.9833 132.234 14.55 130.734 14.55C129.301 14.55 128.084 14.9667 127.084 15.8C126.117 16.6333 125.517 17.8167 125.284 19.35H135.984Z" fill="#0096FF"/>
<path d="M24.95 29.8H11.85L9.75 36H0.8L13.5 0.899999H23.4L36.1 36H27.05L24.95 29.8ZM22.75 23.2L18.4 10.35L14.1 23.2H22.75Z" fill="#F8F8F8"/>
</svg>
