<svg
              width="30"
              height="25"
              viewBox="0 0 19 15"
              xmlns="http://www.w3.org/2000/svg"
            >
              <path
                className="svg"
                d="M0.90625 13.75C0.90625 13.5428 0.98856 13.3441 1.13507 13.1976C1.28159 13.0511 1.4803 12.9688 1.6875 12.9688H17.3125C17.5197 12.9688 17.7184 13.0511 17.8649 13.1976C18.0114 13.3441 18.0938 13.5428 18.0938 13.75C18.0938 13.9572 18.0114 14.1559 17.8649 14.3024C17.7184 14.4489 17.5197 14.5312 17.3125 14.5312H1.6875C1.4803 14.5312 1.28159 14.4489 1.13507 14.3024C0.98856 14.1559 0.90625 13.9572 0.90625 13.75ZM0.90625 7.5C0.90625 7.2928 0.98856 7.09409 1.13507 6.94757C1.28159 6.80106 1.4803 6.71875 1.6875 6.71875H17.3125C17.5197 6.71875 17.7184 6.80106 17.8649 6.94757C18.0114 7.09409 18.0938 7.2928 18.0938 7.5C18.0938 7.7072 18.0114 7.90591 17.8649 8.05243C17.7184 8.19894 17.5197 8.28125 17.3125 8.28125H1.6875C1.4803 8.28125 1.28159 8.19894 1.13507 8.05243C0.98856 7.90591 0.90625 7.7072 0.90625 7.5ZM0.90625 1.25C0.90625 1.0428 0.98856 0.844086 1.13507 0.697573C1.28159 0.55106 1.4803 0.46875 1.6875 0.46875H17.3125C17.5197 0.46875 17.7184 0.55106 17.8649 0.697573C18.0114 0.844086 18.0938 1.0428 18.0938 1.25C18.0938 1.4572 18.0114 1.65591 17.8649 1.80243C17.7184 1.94894 17.5197 2.03125 17.3125 2.03125H1.6875C1.4803 2.03125 1.28159 1.94894 1.13507 1.80243C0.98856 1.65591 0.90625 1.4572 0.90625 1.25V1.25Z"
                fill="white"
              />
            </svg>