<svg width="253" height="30" viewBox="0 0 293 42" fill="none" xmlns="http://www.w3.org/2000/svg">
<path d="M197.4 17C196.767 15.8333 195.85 14.95 194.65 14.35C193.483 13.7167 192.1 13.4 190.5 13.4C187.733 13.4 185.517 14.3167 183.85 16.15C182.183 17.95 181.35 20.3667 181.35 23.4C181.35 26.6333 182.217 29.1667 183.95 31C185.717 32.8 188.133 33.7 191.2 33.7C193.3 33.7 195.067 33.1667 196.5 32.1C197.967 31.0333 199.033 29.5 199.7 27.5H188.85V21.2H207.45V29.15C206.817 31.2833 205.733 33.2667 204.2 35.1C202.7 36.9333 200.783 38.4167 198.45 39.55C196.117 40.6833 193.483 41.25 190.55 41.25C187.083 41.25 183.983 40.5 181.25 39C178.55 37.4667 176.433 35.35 174.9 32.65C173.4 29.95 172.65 26.8667 172.65 23.4C172.65 19.9333 173.4 16.85 174.9 14.15C176.433 11.4167 178.55 9.3 181.25 7.8C183.95 6.26666 187.033 5.5 190.5 5.5C194.7 5.5 198.233 6.51666 201.1 8.55C204 10.5833 205.917 13.4 206.85 17H197.4ZM210.486 27C210.486 24.1333 211.019 21.6167 212.086 19.45C213.186 17.2833 214.669 15.6167 216.536 14.45C218.403 13.2833 220.486 12.7 222.786 12.7C224.753 12.7 226.469 13.1 227.936 13.9C229.436 14.7 230.586 15.75 231.386 17.05V13.1H239.936V41H231.386V37.05C230.553 38.35 229.386 39.4 227.886 40.2C226.419 41 224.703 41.4 222.736 41.4C220.469 41.4 218.403 40.8167 216.536 39.65C214.669 38.45 213.186 36.7667 212.086 34.6C211.019 32.4 210.486 29.8667 210.486 27ZM231.386 27.05C231.386 24.9167 230.786 23.2333 229.586 22C228.419 20.7667 226.986 20.15 225.286 20.15C223.586 20.15 222.136 20.7667 220.936 22C219.769 23.2 219.186 24.8667 219.186 27C219.186 29.1333 219.769 30.8333 220.936 32.1C222.136 33.3333 223.586 33.95 225.286 33.95C226.986 33.95 228.419 33.3333 229.586 32.1C230.786 30.8667 231.386 29.1833 231.386 27.05ZM261.671 33.75V41H257.321C254.221 41 251.805 40.25 250.071 38.75C248.338 37.2167 247.471 34.7333 247.471 31.3V20.2H244.071V13.1H247.471V6.3H256.021V13.1H261.621V20.2H256.021V31.4C256.021 32.2333 256.221 32.8333 256.621 33.2C257.021 33.5667 257.688 33.75 258.621 33.75H261.671ZM292.734 26.6C292.734 27.4 292.684 28.2333 292.584 29.1H273.234C273.367 30.8333 273.917 32.1667 274.884 33.1C275.884 34 277.101 34.45 278.534 34.45C280.667 34.45 282.151 33.55 282.984 31.75H292.084C291.617 33.5833 290.767 35.2333 289.534 36.7C288.334 38.1667 286.817 39.3167 284.984 40.15C283.151 40.9833 281.101 41.4 278.834 41.4C276.101 41.4 273.667 40.8167 271.534 39.65C269.401 38.4833 267.734 36.8167 266.534 34.65C265.334 32.4833 264.734 29.95 264.734 27.05C264.734 24.15 265.317 21.6167 266.484 19.45C267.684 17.2833 269.351 15.6167 271.484 14.45C273.617 13.2833 276.067 12.7 278.834 12.7C281.534 12.7 283.934 13.2667 286.034 14.4C288.134 15.5333 289.767 17.15 290.934 19.25C292.134 21.35 292.734 23.8 292.734 26.6ZM283.984 24.35C283.984 22.8833 283.484 21.7167 282.484 20.85C281.484 19.9833 280.234 19.55 278.734 19.55C277.301 19.55 276.084 19.9667 275.084 20.8C274.117 21.6333 273.517 22.8167 273.284 24.35H283.984Z" fill="#0096FF"/>
<path d="M24.95 34.8H11.85L9.75 41H0.8L13.5 5.9H23.4L36.1 41H27.05L24.95 34.8ZM22.75 28.2L18.4 15.35L14.1 28.2H22.75ZM56.9652 12.8C60.2319 12.8 62.8319 13.8667 64.7652 16C66.7319 18.1 67.7152 21 67.7152 24.7V41H59.2152V25.85C59.2152 23.9833 58.7319 22.5333 57.7652 21.5C56.7986 20.4667 55.4986 19.95 53.8652 19.95C52.2319 19.95 50.9319 20.4667 49.9652 21.5C48.9986 22.5333 48.5152 23.9833 48.5152 25.85V41H39.9652V13.1H48.5152V16.8C49.3819 15.5667 50.5486 14.6 52.0152 13.9C53.4819 13.1667 55.1319 12.8 56.9652 12.8ZM77.9566 10.2C76.4566 10.2 75.2233 9.76666 74.2566 8.9C73.3233 8 72.8566 6.9 72.8566 5.6C72.8566 4.26667 73.3233 3.16666 74.2566 2.3C75.2233 1.4 76.4566 0.949997 77.9566 0.949997C79.4233 0.949997 80.6233 1.4 81.5566 2.3C82.5233 3.16666 83.0066 4.26667 83.0066 5.6C83.0066 6.9 82.5233 8 81.5566 8.9C80.6233 9.76666 79.4233 10.2 77.9566 10.2ZM82.2066 13.1V41H73.6566V13.1H82.2066ZM124.003 12.8C127.469 12.8 130.219 13.85 132.253 15.95C134.319 18.05 135.353 20.9667 135.353 24.7V41H126.853V25.85C126.853 24.05 126.369 22.6667 125.403 21.7C124.469 20.7 123.169 20.2 121.503 20.2C119.836 20.2 118.519 20.7 117.553 21.7C116.619 22.6667 116.153 24.05 116.153 25.85V41H107.653V25.85C107.653 24.05 107.169 22.6667 106.203 21.7C105.269 20.7 103.969 20.2 102.303 20.2C100.636 20.2 99.3194 20.7 98.3527 21.7C97.4194 22.6667 96.9527 24.05 96.9527 25.85V41H88.4027V13.1H96.9527V16.6C97.8194 15.4333 98.9527 14.5167 100.353 13.85C101.753 13.15 103.336 12.8 105.103 12.8C107.203 12.8 109.069 13.25 110.703 14.15C112.369 15.05 113.669 16.3333 114.603 18C115.569 16.4667 116.886 15.2167 118.553 14.25C120.219 13.2833 122.036 12.8 124.003 12.8ZM167.632 26.6C167.632 27.4 167.582 28.2333 167.482 29.1H148.132C148.266 30.8333 148.816 32.1667 149.782 33.1C150.782 34 151.999 34.45 153.432 34.45C155.566 34.45 157.049 33.55 157.882 31.75H166.982C166.516 33.5833 165.666 35.2333 164.432 36.7C163.232 38.1667 161.716 39.3167 159.882 40.15C158.049 40.9833 155.999 41.4 153.732 41.4C150.999 41.4 148.566 40.8167 146.432 39.65C144.299 38.4833 142.632 36.8167 141.432 34.65C140.232 32.4833 139.632 29.95 139.632 27.05C139.632 24.15 140.216 21.6167 141.382 19.45C142.582 17.2833 144.249 15.6167 146.382 14.45C148.516 13.2833 150.966 12.7 153.732 12.7C156.432 12.7 158.832 13.2667 160.932 14.4C163.032 15.5333 164.666 17.15 165.832 19.25C167.032 21.35 167.632 23.8 167.632 26.6ZM158.882 24.35C158.882 22.8833 158.382 21.7167 157.382 20.85C156.382 19.9833 155.132 19.55 153.632 19.55C152.199 19.55 150.982 19.9667 149.982 20.8C149.016 21.6333 148.416 22.8167 148.182 24.35H158.882Z" fill="#F8F8F8"/>
</svg>
